<svg id="Layer_1" data-name="Layer 1" xmlns="http://www.w3.org/2000/svg" viewBox="0 0 247.26 28.99"><defs><style>.cls-1{fill:#fff;}</style></defs><title>Vector Smart Object1</title><polygon class="cls-1" points="17.36 11.07 10.43 28.99 0 0.4 5.12 0.4 10.71 16.02 17.36 0 23.96 16.06 29.55 0.4 34.71 0.4 24.28 28.99 17.36 11.07"/><polygon class="cls-1" points="39.09 0.4 52.38 0.4 52.38 4.39 44 4.39 44 12.32 51.25 12.32 51.25 16.3 44 16.3 44 24.56 52.38 24.56 52.38 28.58 39.09 28.58 39.09 0.4"/><path class="cls-1" d="M136.59,89.56a13.37,13.37,0,0,1-8.38-2.7l2.46-3.06a10.84,10.84,0,0,0,5.56,1.73c2.69,0,4.27-1.37,4.27-3.58,0-5.64-11-5.39-11-14.13,0-5,3.5-7.25,8.33-7.25a13.88,13.88,0,0,1,7.08,1.89l-2,3.38a7.64,7.64,0,0,0-4.35-1.33c-2.3,0-4.19.8-4.19,3.22,0,5.76,11,5.4,11,14.17,0,5.48-4.35,7.65-8.86,7.65" transform="translate(-71.76 -60.58)"/><polygon class="cls-1" points="82.87 28.58 82.87 4.83 77.35 4.83 77.35 0.4 93.34 0.4 93.34 4.83 87.78 4.83 87.78 28.58 82.87 28.58"/><path class="cls-1" d="M184,89.56a13.36,13.36,0,0,1-8.37-2.7l2.46-3.06a10.83,10.83,0,0,0,5.56,1.73c2.7,0,4.27-1.37,4.27-3.58,0-5.64-11-5.39-11-14.13,0-5,3.5-7.25,8.33-7.25a13.9,13.9,0,0,1,7.09,1.89l-2,3.38A7.64,7.64,0,0,0,186,64.52c-2.29,0-4.19.8-4.19,3.22,0,5.76,11,5.4,11,14.17,0,5.48-4.35,7.65-8.86,7.65" transform="translate(-71.76 -60.58)"/><polygon class="cls-1" points="130.25 28.58 130.25 4.83 124.74 4.83 124.74 0.4 140.72 0.4 140.72 4.83 135.17 4.83 135.17 28.58 130.25 28.58"/><path class="cls-1" d="M227.3,85.09h-8.17l-1.33,4.07H213l10.31-28.58L233.5,89.16h-4.87Zm-1.29-4-2.74-8.86-2.82,8.86Z" transform="translate(-71.76 -60.58)"/><polygon class="cls-1" points="167.78 28.58 167.78 4.83 162.27 4.83 162.27 0.4 178.25 0.4 178.25 4.83 172.69 4.83 172.69 28.58 167.78 28.58"/><rect class="cls-1" x="183.02" y="0.4" width="4.91" height="28.18"/><polygon class="cls-1" points="230.67 11.64 230.67 28.58 225.76 28.58 225.76 0 242.34 17.31 242.34 0.4 247.26 0.4 247.26 28.99 230.67 11.64"/><path class="cls-1" d="M278.67,65.51a9.35,9.35,0,1,1-9.36,9.36,9.37,9.37,0,0,1,9.36-9.36m0-4.94A14.29,14.29,0,1,0,293,74.87a14.29,14.29,0,0,0-14.3-14.29" transform="translate(-71.76 -60.58)"/></svg>